<?xml version="1.0" encoding="UTF-8" standalone="no"?>
<!DOCTYPE svg PUBLIC "-//W3C//DTD SVG 1.1//EN" "http://www.w3.org/Graphics/SVG/1.1/DTD/svg11.dtd">
<svg width="100%" height="100%" viewBox="0 0 1221 936" version="1.1" xmlns="http://www.w3.org/2000/svg" xmlns:xlink="http://www.w3.org/1999/xlink" xml:space="preserve" xmlns:serif="http://www.serif.com/" style="fill-rule:evenodd;clip-rule:evenodd;stroke-linejoin:round;stroke-miterlimit:2;">
    <g transform="matrix(1.58431,0,0,0.912161,-5.46638,-0.670673)">
        <rect id="Mesa-de-trabajo1" serif:id="Mesa de trabajo1" x="3.45" y="0.735" width="770.43" height="1026.09" style="fill:none;"/>
        <clipPath id="_clip1">
            <rect id="Mesa-de-trabajo11" serif:id="Mesa de trabajo1" x="3.45" y="0.735" width="770.43" height="1026.09"/>
        </clipPath>
        <g clip-path="url(#_clip1)">
            <g transform="matrix(1.00654,0,0,1.02764,2.17518,-2.74471)">
                <rect x="1.267" y="3.386" width="765.427" height="998.495" style="fill:rgb(120,179,107);"/>
            </g>
            <g transform="matrix(0.663642,0,0,0.663642,-14.9935,242.693)">
                <g transform="matrix(0.979443,0,0,1.70117,-66.0571,-252.598)">
                    <path d="M475.958,358.726C475.483,356.006 474.719,350.231 474.389,345.284C474.18,342.161 472.928,337.732 472.928,337.732C472.928,337.732 478.866,341.814 484.453,342.705C488.213,343.305 491.654,342.663 495.318,341.611C500.887,340.012 514.267,333.304 516.291,331.4C517.178,330.566 517.953,329.387 518.66,327.732C519.615,325.495 520.695,322.093 521.439,319.899C521.75,318.982 522.83,313.863 522.832,313.53C522.838,312.53 522.924,300.856 522.986,300.237C523.588,294.18 523.264,285.868 523.504,278.061C523.75,270.075 516.311,251.523 512.321,246.813C508.631,242.458 509.199,238.004 509.727,230.259C510.01,226.102 509.192,222.018 508.622,217.689C508.082,213.58 507.776,209.237 509.039,204.358C510.88,197.244 512.909,185.127 513.615,177.177C513.932,173.601 513.957,170.829 513.639,169.617C513.342,168.483 512.793,167.78 512.163,167.363C511.471,166.905 510.641,166.757 509.731,166.9C507.803,167.203 505.365,169.051 503.91,170.808C501.807,173.346 494.849,180.112 487.823,187.422C480.773,194.757 462.959,211.511 460.053,214.438C459.78,214.712 459.125,214.968 458.224,215.294C456.531,215.905 454.069,216.568 451.189,217.239C439.878,219.876 422.184,222.618 418.92,222.478C418.471,222.459 417.771,222.107 416.834,221.598C415.096,220.654 412.772,219.115 410.125,217.252C402.785,212.086 393.029,204.456 386.383,199.831C383.403,197.757 381.008,196.281 379.679,195.813C376.974,194.86 374.828,194.248 373.145,194.2C371.752,194.16 370.62,194.478 369.691,195.187C368.771,195.889 368.029,197.016 367.515,198.732C366.919,200.722 366.925,203.447 367.301,206.761C367.834,211.45 369.084,217.388 370.114,224.106C371.154,230.888 375.5,240.066 378.785,247.697C380.681,252.101 382.246,255.95 382.445,258.428C382.264,258.632 382.136,258.889 382.089,259.178C382.089,259.178 380.14,270.88 369.474,288.714C350.673,320.148 328.873,344.358 315.03,369.561C301.126,394.873 296.593,427.349 291.703,447.767C286.81,468.194 283.089,501.055 284.77,529.785C286.458,558.632 294.582,589.625 307.561,609.431C315.101,620.936 316.379,631.038 317.118,639.406C317.638,645.294 317.934,650.365 319.712,654.531C326.777,671.082 331.663,694.425 365.565,715.027C394.471,732.591 439.99,726.132 456.209,721.227C491.207,710.643 500.203,708.868 523.157,693.972C536.847,685.089 548.099,676.214 557.959,669.911C564.354,665.823 570.136,662.823 575.628,661.697C583.87,660.007 592.843,659.864 599.684,662.149C606.087,664.287 610.556,668.621 610.291,676.01C609.908,686.699 616.897,694.877 625.694,695.31C631.444,695.594 638.106,692.576 643.997,684.447C649.804,676.435 649.16,666.395 645.208,656.958C639.407,643.102 626.483,630.661 617.71,628.2C603.329,624.165 587.276,617.542 559.321,628.911C531.812,640.098 509.214,654.794 487.889,664.396C466.99,673.808 461.334,676.468 449.858,675.251C445.946,674.836 443.401,674.286 441.873,673.595C441.265,673.319 440.855,673.104 440.719,672.777C440.664,672.644 440.75,672.514 440.823,672.368C440.962,672.089 441.176,671.809 441.433,671.519C442.708,670.084 444.927,668.582 446.827,667.146C469.99,649.639 471.604,648.144 490.09,622.04C508.575,595.937 520.625,580.208 526.784,555.352C531.652,535.708 539.013,520.254 532.883,499.729C526.343,477.832 519.593,471.685 511.828,467.582C510.045,466.64 508.717,465.981 507.741,465.024C506.686,463.989 506.124,462.581 505.725,460.071C505.264,457.164 505.075,452.948 504.92,446.515C504.464,427.567 501.238,419.324 494.643,406.16C485.155,387.223 483.136,382.608 477.761,365.464C476.98,362.975 476.357,361.016 475.958,358.726Z" style="fill:rgb(232,173,71);"/>
                </g>
                <g transform="matrix(0.979443,0,0,1.70117,-66.0571,-252.598)">
                    <path d="M505.34,281.026C505.523,283.08 505.96,284.825 506.255,285.826C509.579,285.423 513.06,284.007 514.299,282.54C516.188,280.303 516.943,277.519 516.919,274.735C516.908,273.464 516.451,270.036 515.227,268.243C513.986,266.425 511.719,267.149 511.268,267.351C509.359,268.205 508.966,269.127 508.966,269.127C508.966,269.127 513.55,269.333 513.684,276.262C513.76,280.214 511.543,283.424 508.906,283.424C507.489,283.424 506.216,282.497 505.34,281.026ZM456.777,291.083C454.809,291.652 453.259,292.35 452.555,292.947C450.583,294.619 448.948,295.428 449.431,298.549C450.085,302.78 454.74,309.224 461.97,307.713C469.277,306.186 474.082,302.43 476.546,300.251C476.36,298.707 475.413,294.114 470.638,291.449C468.395,290.197 465.579,289.873 462.826,290.032C465.397,290.997 467.247,293.668 467.247,296.808C467.247,300.761 464.316,303.97 460.705,303.97C457.095,303.97 454.164,300.761 454.164,296.808C454.164,294.469 455.19,292.39 456.777,291.083Z" style="fill:rgb(210,230,206);"/>
                </g>
                <g transform="matrix(0.979443,0,0,1.70117,-66.0571,-252.598)">
                    <path d="M475.958,358.726C476.396,360.744 476.98,362.975 477.761,365.464C483.136,382.608 485.155,387.223 494.643,406.16C501.238,419.324 504.464,427.567 504.92,446.515C505.075,452.948 505.264,457.164 505.725,460.071C506.124,462.581 506.686,463.989 507.741,465.024C508.717,465.981 510.045,466.64 511.828,467.582C519.593,471.685 526.343,477.832 532.883,499.729C539.013,520.254 531.652,535.708 526.784,555.352C520.625,580.208 508.575,595.937 490.09,622.04C471.604,648.144 469.99,649.639 446.827,667.146C444.927,668.582 442.708,670.084 441.433,671.519C441.176,671.809 440.962,672.089 440.823,672.368C440.75,672.514 440.664,672.644 440.719,672.777C440.855,673.104 441.265,673.319 441.873,673.595C443.401,674.286 445.946,674.836 449.858,675.251C461.334,676.468 466.99,673.808 487.889,664.396C509.214,654.794 531.812,640.098 559.321,628.911C587.276,617.542 603.329,624.165 617.71,628.2C626.483,630.661 639.407,643.102 645.208,656.958C649.16,666.395 649.804,676.435 643.997,684.447C638.106,692.576 631.444,695.594 625.694,695.31C616.897,694.877 609.908,686.699 610.291,676.01C610.556,668.621 606.087,664.287 599.684,662.149C592.843,659.864 583.87,660.007 575.628,661.697C570.136,662.823 564.354,665.823 557.959,669.911C548.099,676.214 536.847,685.089 523.157,693.972C500.203,708.868 491.207,710.643 456.209,721.227C439.99,726.132 394.471,732.591 365.565,715.027C331.663,694.425 326.777,671.082 319.712,654.531C317.934,650.365 317.638,645.294 317.118,639.406C316.379,631.038 315.101,620.936 307.561,609.431C294.582,589.625 286.458,558.632 284.77,529.785C283.089,501.055 286.81,468.194 291.703,447.767C296.593,427.349 301.126,394.873 315.03,369.561C328.873,344.358 350.673,320.148 369.474,288.714C380.14,270.88 382.089,259.178 382.089,259.178C382.136,258.889 382.264,258.632 382.445,258.428C382.246,255.95 380.681,252.101 378.785,247.697C375.5,240.066 371.154,230.888 370.114,224.106C369.084,217.388 367.834,211.45 367.301,206.761C366.925,203.447 366.919,200.722 367.515,198.732C368.029,197.016 368.771,195.889 369.691,195.187C370.62,194.478 371.752,194.16 373.145,194.2C374.828,194.248 376.974,194.86 379.679,195.813C381.008,196.281 383.403,197.757 386.383,199.831C393.029,204.456 402.785,212.086 410.125,217.252C412.772,219.115 415.096,220.654 416.834,221.598C417.771,222.107 418.471,222.459 418.92,222.478C422.184,222.618 439.878,219.876 451.189,217.239C454.069,216.568 456.531,215.905 458.224,215.294C459.125,214.968 459.78,214.712 460.053,214.438C462.959,211.511 480.773,194.757 487.823,187.422C494.849,180.112 501.807,173.346 503.91,170.808C505.365,169.051 507.803,167.203 509.731,166.9C510.641,166.757 511.471,166.905 512.163,167.363C512.793,167.78 513.342,168.483 513.639,169.617C513.957,170.829 513.932,173.601 513.615,177.177C512.909,185.127 510.88,197.244 509.039,204.358C507.776,209.237 508.082,213.58 508.622,217.689C509.192,222.018 510.01,226.102 509.727,230.259C509.199,238.004 508.631,242.458 512.321,246.813C516.311,251.523 523.75,270.075 523.504,278.061C523.264,285.868 523.588,294.18 522.986,300.237C522.924,300.856 522.88,301.525 522.849,302.232C527.008,301.907 534.54,301.517 542.277,302.113C554.029,303.02 557.623,304.413 557.623,304.413C558.282,304.663 558.606,305.381 558.346,306.016C558.085,306.65 557.34,306.962 556.68,306.712C556.68,306.712 553.253,305.439 542.071,304.577C534.322,303.979 526.783,304.394 522.788,304.716C522.779,305.764 522.784,306.853 522.794,307.952C525.532,308.108 531.663,308.639 537.874,310.423C546.158,312.802 556.785,318.233 556.785,318.233C557.411,318.553 557.649,319.301 557.316,319.904C556.983,320.506 556.206,320.735 555.58,320.415C555.58,320.415 545.219,315.111 537.14,312.791C531.285,311.11 525.505,310.587 522.82,310.428C522.831,311.486 522.838,312.53 522.832,313.53C522.83,313.863 522.827,314.192 522.821,314.515C528.806,315.808 538.936,318.552 543.153,320.285C549.714,322.983 552.866,324.553 557.268,328.607C557.78,329.079 557.798,329.861 557.308,330.354C556.817,330.847 556.005,330.864 555.492,330.392C551.335,326.563 548.341,325.106 542.144,322.558C538.129,320.907 528.626,318.329 522.728,317.028C522.627,318.644 522.443,319.997 522.132,320.913C521.387,323.107 520.581,325.834 519.626,328.07C518.919,329.725 518.11,331.122 517.223,331.956C515.198,333.86 501.369,340.568 495.801,342.166C492.137,343.218 488.088,343.73 484.063,343.074C481.706,347.517 478.245,354.102 475.958,358.726ZM383.617,265.229C381.98,270.508 378.625,279.259 372.049,290.254C353.269,321.653 331.487,345.83 317.659,371.005C303.892,396.07 299.463,428.247 294.62,448.466C289.78,468.675 286.102,501.186 287.765,529.61C289.421,557.918 297.333,588.35 310.07,607.786C317.96,619.826 319.333,630.386 320.106,639.142C320.595,644.67 320.802,649.442 322.471,653.353C329.366,669.506 334.038,692.358 367.123,712.463C395.252,729.555 439.558,723.128 455.34,718.355C489.931,707.894 498.837,706.178 521.524,691.455C535.22,682.568 546.479,673.69 556.343,667.384C563.097,663.066 569.226,659.947 575.026,658.758C583.8,656.959 593.351,656.871 600.634,659.303C608.354,661.881 613.608,667.209 613.289,676.118C612.971,684.988 618.541,691.954 625.842,692.314C630.823,692.56 636.464,689.729 641.568,682.687C646.756,675.528 645.972,666.549 642.441,658.116C637.019,645.167 625.099,633.389 616.9,631.089C602.997,627.188 587.477,620.699 560.452,631.69C532.981,642.862 510.416,657.542 489.121,667.132C467.399,676.914 461.47,679.499 449.541,678.234C445.173,677.771 442.343,677.1 440.636,676.328C439.085,675.626 438.293,674.76 437.947,673.924C437.498,672.839 437.68,671.649 438.484,670.434C439.684,668.623 442.565,666.606 445.018,664.752C467.841,647.503 469.428,646.027 487.642,620.306C505.857,594.584 517.803,579.124 523.872,554.63C528.604,535.536 535.967,520.538 530.008,500.587C523.861,480.005 517.726,474.091 510.427,470.235C508.323,469.123 506.79,468.294 505.64,467.165C504.216,465.768 503.301,463.932 502.762,460.541C502.287,457.549 502.081,453.209 501.921,446.587C501.48,428.235 498.349,420.253 491.961,407.504C482.369,388.36 480.332,383.693 474.898,366.362C474.536,365.207 474.214,364.106 473.929,363.054C473.926,363.061 473.923,363.068 473.92,363.075C471.932,367.929 469.379,379.011 469.379,379.011C469.232,379.647 468.578,380.048 467.918,379.906C467.257,379.765 466.841,379.135 466.987,378.5C466.987,378.5 469.608,367.173 471.641,362.211C471.931,361.502 472.403,360.479 472.999,359.247C472.394,356.446 472.057,354.041 471.857,351.913C470.499,353.845 469.274,355.63 468.36,357.043C464.149,363.551 457.666,378.603 457.666,378.603C457.406,379.204 456.69,379.49 456.065,379.24C455.44,378.991 455.143,378.301 455.403,377.699C455.403,377.699 462.001,362.41 466.28,355.797C467.592,353.77 469.54,350.978 471.608,348.085C471.56,346.941 471.533,345.876 471.495,344.86C471.457,343.841 471.408,342.875 471.308,341.928C470.793,342.484 470.298,343.027 469.835,343.549C465.45,348.49 449.177,369.141 445.238,376.728C444.936,377.31 444.2,377.546 443.595,377.255C442.99,376.965 442.744,376.256 443.047,375.674C447.04,367.98 463.525,347.029 467.972,342.018C468.824,341.057 469.784,340.022 470.779,338.976C470.552,338.119 470.247,337.248 469.836,336.337C469.802,336.262 469.775,336.186 469.755,336.11C468.968,335.632 468.154,335.146 467.313,334.661C462.489,338.125 457.247,341.932 455.423,343.412C451.763,346.382 434.968,360.149 432.957,362.661C432.544,363.176 431.774,363.272 431.239,362.875C430.703,362.477 430.603,361.737 431.016,361.221C433.063,358.667 450.12,344.631 453.844,341.61C455.579,340.201 460.39,336.698 465.012,333.374C460.718,331.055 455.865,328.927 450.739,327.963C438.626,325.687 431.817,328.094 418.302,320.547C410.132,315.985 402.033,306.551 396.592,297.84C392.927,291.974 390.474,286.43 389.934,282.921C389.162,277.902 386.593,272.79 384.716,268.16C384.311,267.161 383.938,266.182 383.617,265.229ZM475.229,354.768C477.277,350.736 479.741,346.046 481.607,342.522C480.816,342.293 480.029,342.013 479.249,341.678C477.834,343.601 476.209,345.825 474.608,348.05C474.692,349.999 474.842,352.188 475.229,354.768ZM474.467,344.121C475.366,342.884 476.244,341.685 477.057,340.579C476.198,340.096 475.248,339.518 474.214,338.876C474.114,338.98 474.013,339.083 473.913,339.186C474.254,340.799 474.389,342.397 474.467,344.121ZM472.448,334.883C472.943,335.187 473.424,335.485 473.891,335.775C477.034,332.6 479.771,329.986 479.771,329.986C480.251,329.527 481.027,329.53 481.503,329.992C481.98,330.454 481.977,331.201 481.496,331.659C481.496,331.659 478.967,334.074 475.991,337.07C476.917,337.634 477.77,338.139 478.543,338.561C480.305,336.177 481.506,334.573 481.506,334.573C481.902,334.045 482.668,333.926 483.216,334.306C483.765,334.687 483.889,335.424 483.494,335.952C483.494,335.952 482.398,337.414 480.767,339.62C481.438,339.886 482.115,340.106 482.795,340.284C483.807,338.382 484.457,337.17 484.457,337.17C484.768,336.592 485.507,336.365 486.108,336.664C486.709,336.963 486.945,337.675 486.634,338.253C486.634,338.253 486.119,339.211 485.295,340.758C488.654,341.163 492.012,340.68 495.068,339.802C500.351,338.286 513.51,331.998 515.431,330.191C516.123,329.541 516.704,328.423 517.255,327.132C518.187,324.95 518.968,322.288 519.695,320.148C519.934,319.443 520.075,318.45 520.157,317.269C519.555,317.288 517.246,317.484 512.816,319.231C510.064,320.317 507.423,321.218 505.315,322.362C503.473,323.361 502.049,324.527 501.497,326.302C501.469,326.391 501.453,326.503 501.444,326.576C501.563,326.61 501.809,326.677 501.99,326.692C503.125,326.789 504.661,326.517 505.874,326.369C506.558,326.286 507.182,326.752 507.268,327.41C507.355,328.068 506.871,328.668 506.187,328.751C504.474,328.96 502.209,329.294 500.872,328.933C500.106,328.726 499.553,328.325 499.234,327.77C498.94,327.257 498.813,326.559 499.106,325.614C499.842,323.248 501.635,321.602 504.09,320.27C506.278,319.083 509.014,318.136 511.87,317.009C516.078,315.349 518.629,314.967 519.774,314.886C518.564,312.026 516.101,306.315 515.272,305.209C513.981,303.487 511.162,298.599 509.072,296.304C506.874,293.892 504.016,287.329 504.016,287.329L504.044,287.317C503.638,286.105 501.975,280.644 503.056,275.343C503.6,272.674 504.851,269.935 505.708,268.811C507.278,266.753 509.71,265.094 511.953,264.683C513.719,264.359 515.387,264.747 516.628,266.089C517.857,267.417 519.273,269.884 519.484,274.63C519.635,278.005 518.584,281.384 516.291,284.099C514.858,285.796 511.008,287.581 507.167,288.191C508.095,290.165 509.656,293.248 510.977,294.697C513.112,297.041 516.007,302.024 517.326,303.783C517.9,304.549 519.007,306.592 520.053,308.781C520.094,308.647 520.157,308.522 520.238,308.411C520.227,307.242 520.219,306.076 520.227,304.952C519.981,304.979 519.851,304.994 519.851,304.994C519.147,305.078 518.506,304.596 518.419,303.919C518.333,303.242 518.833,302.625 519.537,302.542C519.537,302.542 519.796,302.511 520.277,302.462C520.309,301.584 520.359,300.756 520.434,300.002C521.032,293.989 520.703,285.738 520.942,277.988C521.175,270.419 514.116,252.836 510.334,248.372C506.251,243.552 506.585,238.669 507.169,230.098C507.441,226.096 506.627,222.166 506.079,217.999C505.502,213.61 505.203,208.973 506.551,203.762C508.366,196.749 510.365,184.804 511.061,176.967C511.344,173.776 511.437,171.302 511.154,170.221C511.047,169.813 510.925,169.524 510.694,169.386C510.456,169.243 510.157,169.312 509.838,169.405C509.254,169.575 508.636,169.929 508.039,170.36C507.239,170.937 506.485,171.657 505.914,172.346C505.532,172.807 504.793,173.812 504.403,174.551C502.566,178.03 504.638,181.83 494.891,193.217C489.178,199.891 486.562,204.513 485.279,210.464C483.345,219.432 486.648,227.848 486.648,227.848C486.899,228.486 486.564,229.199 485.901,229.441C485.238,229.682 484.497,229.36 484.246,228.722C484.246,228.722 480.678,219.639 482.765,209.962C484.126,203.65 486.85,198.724 492.909,191.646C498.428,185.198 499.927,180.733 500.708,177.787C497.557,181.007 493.934,184.697 489.705,189.097C482.647,196.44 464.816,213.212 461.906,216.142C461.568,216.482 460.92,216.884 459.979,217.274C458.234,217.997 455.313,218.817 451.793,219.637C440.233,222.332 422.142,225.086 418.806,224.942C418.265,224.919 417.461,224.684 416.464,224.204C414.599,223.305 411.83,221.509 408.612,219.244C405.821,217.279 402.68,214.958 399.495,212.582C401.127,214.113 402.605,215.514 403.722,216.594C408.875,221.58 416.514,230.858 420.031,234.504C423.604,238.207 427.159,241.146 429.646,245.169C430.758,246.967 431.13,248.087 431.218,248.767C431.342,249.725 431.055,250.244 430.776,250.478C429.415,251.624 428.854,249.184 428.854,249.184C428.854,249.184 428.588,247.955 427.593,246.345C425.191,242.459 421.73,239.645 418.28,236.068C414.774,232.434 407.164,223.185 402.028,218.215C396.889,213.244 384.05,201.465 384.05,201.465C383.922,201.348 383.826,201.209 383.765,201.06C381.575,199.568 379.837,198.496 378.797,198.129C376.787,197.421 375.13,196.899 373.764,196.723C372.734,196.59 371.912,196.641 371.284,197.12C370.699,197.566 370.305,198.325 369.978,199.416C369.452,201.169 369.518,203.572 369.85,206.493C370.38,211.157 371.626,217.064 372.65,223.746C373.665,230.364 377.947,239.306 381.153,246.752C383.381,251.927 385.068,256.43 385.028,259.071C385.073,259.26 385.083,259.46 385.049,259.664C385.049,259.664 385.043,259.703 385.029,259.779C385.14,262.662 386.561,266.031 388.097,269.639C389.86,273.78 391.801,278.208 392.47,282.56C392.978,285.861 395.342,291.051 398.789,296.569C404.014,304.933 411.744,314.033 419.588,318.413C432.762,325.769 439.423,323.323 451.23,325.542C457.025,326.631 462.488,329.157 467.215,331.792C471.57,328.671 475.249,326.065 475.249,326.065C475.794,325.679 476.561,325.791 476.962,326.316C477.363,326.84 477.246,327.578 476.701,327.964C476.701,327.964 473.473,330.25 469.493,333.098C470.14,333.479 470.77,333.858 471.382,334.23C471.807,334.282 472.201,334.514 472.448,334.883ZM505.34,281.026C505.523,283.08 505.96,284.825 506.255,285.826C509.579,285.423 513.06,284.007 514.299,282.54C516.188,280.303 517.043,277.516 516.919,274.735C516.747,270.864 515.712,268.815 514.71,267.732C513.926,266.884 512.779,266.92 511.65,267.324C510.664,267.677 509.682,268.315 508.841,269.101C508.863,269.1 508.885,269.1 508.906,269.1C511.543,269.1 513.684,272.309 513.684,276.262C513.684,280.215 511.543,283.424 508.906,283.424C507.489,283.424 506.216,282.497 505.34,281.026ZM478.754,301.649C476.268,303.901 470.918,308.371 462.515,310.128C453.564,311.998 447.701,304.151 446.891,298.913C446.231,294.641 448.159,293.382 450.857,291.093C452.118,290.024 455.64,288.551 459.74,287.89C463.826,287.231 468.458,287.375 471.926,289.311C479.014,293.267 479.157,300.723 479.157,300.723C479.165,301.073 479.018,301.409 478.754,301.649ZM456.777,291.083C454.809,291.652 453.259,292.35 452.555,292.947C450.583,294.619 448.948,295.428 449.431,298.549C450.085,302.78 454.74,309.224 461.97,307.713C469.277,306.186 474.082,302.43 476.546,300.251C476.36,298.707 475.413,294.114 470.638,291.449C468.395,290.197 465.579,289.873 462.826,290.032C465.397,290.997 467.247,293.668 467.247,296.808C467.247,300.761 464.316,303.97 460.705,303.97C457.095,303.97 454.164,300.761 454.164,296.808C454.164,294.469 455.19,292.39 456.777,291.083Z"/>
                </g>
            </g>
        </g>
    </g>
</svg>
