<?xml version="1.0" encoding="UTF-8" standalone="no"?>
<!DOCTYPE svg PUBLIC "-//W3C//DTD SVG 1.1//EN" "http://www.w3.org/Graphics/SVG/1.1/DTD/svg11.dtd">
<svg width="100%" height="100%" viewBox="0 0 512 265" version="1.1" xmlns="http://www.w3.org/2000/svg" xmlns:xlink="http://www.w3.org/1999/xlink" xml:space="preserve" xmlns:serif="http://www.serif.com/" style="fill-rule:evenodd;clip-rule:evenodd;stroke-linejoin:round;stroke-miterlimit:2;">
    <g transform="matrix(1,0,0,1,-586.097,-5.67736)">
        <g transform="matrix(0.773427,0,0,0.399062,607.434,417.534)">
            <rect id="Logo-mini" serif:id="Logo mini" x="-27.588" y="-1032.06" width="661.989" height="661.947" style="fill:none;"/>
            <g id="Logo-mini1" serif:id="Logo mini">
                <g id="logo-mini" serif:id="logo mini" transform="matrix(0.198357,0,0,0.384439,-350.682,-1020.82)">
                    <g transform="matrix(1,0,0,1,0.553698,0)">
                        <path d="M2339.26,1125.36C2338.88,1121.2 2338.47,1116.43 2338.27,1113.06C2337.84,1105.78 2333.17,1088.61 2328.93,1076.1C2328.4,1074.55 2327.8,1072.78 2327.14,1070.85C2328.21,1066.1 2330.22,1057.69 2332.17,1052.8C2334.99,1045.69 2339.27,1036.45 2341.62,1029.18C2343.98,1021.9 2343.3,1013.94 2344.08,1005.58C2344.87,997.221 2343.8,992.944 2342.05,990.084C2340.31,987.224 2337.52,992.482 2335.56,995.231C2333.6,997.981 2330.96,1003.72 2328.37,1010.47C2325.78,1017.21 2322.36,1030.28 2321.46,1037.73C2320.96,1041.96 2321.28,1048.85 2321.59,1054.67C2317.74,1043.62 2313.62,1032.14 2311.01,1026.1C2308.16,1019.49 2301.08,1004.94 2293.02,990.341C2297.48,973.052 2302.21,958.273 2304.81,948.093C2308.65,933.109 2318.74,889.273 2321.93,869.023C2322.29,866.721 2322.65,864.373 2323.01,861.986C2324.53,861.237 2326.38,859.933 2327.8,858.688C2329.68,857.029 2331.68,853.157 2333.77,850.346C2335.87,847.536 2338.45,844.46 2340.71,843.148C2342.96,841.836 2343.05,843.122 2343.96,845.091C2344.88,847.06 2347.57,845.547 2349.56,844.46C2351.55,843.372 2352.17,840.362 2350.85,838.821C2349.52,837.279 2349.24,837.268 2349.24,834.635C2349.23,832.001 2346.57,832.753 2345.75,832.756C2344.94,832.759 2343.97,830.244 2342.15,829.922C2340.33,829.599 2339.37,831.164 2339.16,833.823C2338.95,836.482 2339.58,838.061 2339.58,838.061C2339.58,838.061 2334.44,842.286 2332.58,844.022C2330.71,845.757 2328.08,849.812 2325.55,853.203C2324.97,853.98 2324.45,854.682 2323.98,855.301C2326.37,838.433 2328.42,820.055 2329.08,802.655C2329.26,797.907 2328.38,788.729 2327.01,778.359C2327.18,777.296 2327.33,776.16 2327.42,775.175C2327.67,772.342 2329.67,765.347 2330.7,762.42C2331.73,759.493 2334.59,752.202 2335.67,749.718C2336.75,747.233 2340.56,739.138 2341.63,736.765C2342.71,734.392 2342.49,733.009 2342.86,733.201C2343.23,733.392 2348.14,734.703 2349.79,734.146C2351.45,733.589 2349.99,730.186 2348.95,729.4C2347.91,728.614 2348.3,726.799 2347.67,724.42C2347.04,722.041 2344.43,722.445 2343.06,723.303C2341.7,724.162 2342.25,720.751 2340.68,720.436C2339.1,720.121 2337.82,721.477 2337.28,723.59C2336.75,725.702 2338.14,728.493 2338.99,730.147C2339.83,731.802 2338.54,732.444 2337.4,734.802C2336.25,737.16 2334.75,739.864 2332.8,743.943C2330.84,748.023 2329.35,752.041 2327.18,757.479C2326.16,760.052 2325.36,761.936 2324.8,763.207C2322.64,749.59 2320.12,736.516 2318.41,730.531C2317.84,728.528 2316.96,725.691 2315.84,722.239C2316.33,719.845 2316.94,716.105 2317.29,714.353C2317.79,711.825 2319.03,709.757 2319.88,707.167C2320.72,704.576 2320.71,703.834 2321.55,701.202C2322.39,698.569 2322.67,696.31 2323.37,695.513C2324.07,694.715 2326.43,694.79 2328,693.899C2329.56,693.009 2329.72,690.628 2329.49,688.944C2329.26,687.26 2326.16,687.306 2325.39,686.38C2324.62,685.454 2324.63,683.904 2323.62,683.281C2322.6,682.658 2320.19,682.904 2319.16,684.093C2318.12,685.283 2317.83,686.185 2317.57,688.518C2317.31,690.851 2318.91,692.068 2319.62,692.882C2320.32,693.695 2319.83,694.349 2319.18,695.951C2318.53,697.553 2317.47,698.952 2316.39,701.466C2315.3,703.98 2314.79,706.156 2313.62,708.787C2313.14,709.864 2312.53,710.427 2311.98,710.717C2309.46,703.375 2306.47,694.925 2303.33,686.356C2303.38,686.083 2303.41,685.837 2303.43,685.729C2303.84,683.698 2303.3,681.261 2303.95,679.307C2304.68,677.12 2304.57,674.25 2304.89,671.96C2305.38,668.546 2307.03,664.958 2307.61,661.508C2308.6,655.57 2311.49,650.566 2314.14,645.277C2315.11,643.328 2316.16,640.601 2317.61,639.15C2319.03,637.723 2320.06,640.691 2321.82,639.815C2323.55,638.948 2324.09,638.079 2324.69,636.271C2324.92,635.589 2324.49,634.517 2324.03,634.057C2323.07,633.101 2321.11,632.893 2320.41,631.842C2319.58,630.588 2319.86,627.72 2318.05,627.118C2316.93,626.743 2315.3,627.142 2314.21,627.413C2313.7,627.54 2313.39,628.099 2312.88,628.225C2312.42,628.342 2311.87,629.932 2311.91,630.104C2312.01,630.604 2312,630.895 2311.82,631.339C2311.26,632.728 2310.95,632.008 2311.18,632.728C2311.73,634.36 2313.28,636.377 2312.81,638.264C2312.15,640.911 2310.17,642.129 2309.3,644.74C2308.34,647.61 2306.56,649.328 2305.83,652.233C2305.35,654.158 2304.18,656.602 2303.86,658.544C2303.61,660.007 2302.78,661.724 2302.34,663.851C2302.03,665.378 2302.08,667.802 2301.59,669.268C2300.81,671.602 2300.33,674.003 2299.52,676.119C2295.26,664.845 2290.95,654.055 2287.32,646.05C2285.72,642.508 2283.98,638.911 2282.14,635.304C2282.11,631.9 2281.84,625.609 2282.04,622.861C2282.29,619.425 2282.03,608.437 2282.06,605.678C2282.09,602.92 2281.38,603.111 2283.11,602.511C2284.85,601.91 2285.97,601.636 2286.78,598.499C2287.6,595.362 2285.06,596.147 2284.46,594.437C2283.86,592.726 2283.75,591.395 2282.32,591.206C2280.88,591.017 2279.25,590.986 2277.37,592.38C2275.49,593.775 2274.91,594.59 2274.77,597.337C2274.63,600.084 2276.54,601.8 2277.19,602.649C2277.84,603.497 2277.45,607.617 2277.61,612.428C2277.77,617.238 2277.53,618.76 2276.41,623.315C2276.33,623.63 2276.26,623.929 2276.21,624.212C2271.74,616.204 2266.99,608.361 2262.4,601.164C2262.89,598.894 2259.99,593.823 2259.87,589.302C2259.74,584.555 2259.04,576.522 2259,572.253C2258.95,567.984 2258.12,565.094 2258.47,560.902C2258.82,556.711 2259.34,558.623 2261.35,557.041C2263.36,555.459 2264.83,553.953 2264.77,551.654C2264.71,549.356 2261.39,551.331 2260.91,551.567C2260.42,551.803 2259.75,549.692 2258.11,548.123C2256.46,546.553 2255.16,548.545 2254.75,548.576C2254.34,548.608 2253.03,547.071 2250.65,547.745C2248.26,548.419 2248.69,550.348 2249.61,552.084C2250.53,553.819 2252.29,556.001 2253.47,557.422C2254.65,558.842 2253.93,559.114 2254.32,562.001C2254.7,564.887 2254.59,571.978 2254.76,578.767C2254.86,582.626 2254.84,586.753 2254.81,589.597C2254.63,589.336 2254.45,589.077 2254.28,588.819C2252.4,586.042 2250.6,583.451 2248.93,581.089C2245.41,576.113 2240.61,569.927 2235.75,563.894C2235.26,560.538 2234.42,555.816 2233.18,552.215C2231.02,545.961 2228.39,535.705 2227.13,531.696C2225.87,527.687 2224.9,522.568 2224.9,522.568C2224.9,522.568 2227.22,524.597 2229.63,521.895C2232.05,519.193 2235.12,517.259 2233.2,513.636C2231.28,510.013 2229.29,511.119 2227.45,510.652C2225.62,510.184 2227.3,511.669 2223.88,509.039C2220.47,506.409 2218.59,508.37 2217.47,511.551C2216.35,514.732 2218.05,515.02 2219.22,519.251C2220.38,523.483 2220.84,524.413 2222.07,529.954C2223.3,535.494 2224.19,535.745 2225.03,542.226C2225.71,547.427 2227.42,552.102 2228.22,554.721C2222.78,548.221 2218.16,542.936 2216.37,541.119C2212.28,536.959 2213.95,537.632 2212.64,532.98C2211.33,528.328 2206.55,528.216 2204.42,531.911C2202.28,535.607 2205.29,537.846 2207.77,540.398C2210.26,542.95 2213.03,545.498 2219.44,552.007C2220.88,553.471 2222.69,555.469 2224.73,557.832C2222.66,556.405 2219.91,554.566 2217.75,553.35C2213.78,551.109 2210.48,551.522 2209.55,550.114C2208.63,548.707 2207.51,545.616 2204.47,546.904C2201.42,548.192 2202.95,550.498 2202.44,552.519C2201.94,554.541 2201.44,553.885 2199.63,557.302C2197.82,560.718 2200.85,560.667 2203.75,560.735C2206.66,560.804 2207.82,558.529 2210.24,557.393C2212.66,556.257 2215.86,556.474 2219.49,559.626C2223.13,562.777 2227.12,567.054 2231.82,569.206C2233.14,569.811 2234.16,570.141 2234.95,570.302C2239.67,576.3 2244.48,582.741 2248.37,588.394L2248.5,588.584C2246.86,587.723 2244.67,586.65 2242.49,585.813C2238.14,584.141 2235.26,582.148 2230.99,580.871C2226.73,579.594 2221.72,579.509 2221.72,579.509C2221.72,579.509 2221.26,575.606 2219.02,573.696C2216.78,571.786 2215.77,571.163 2214.43,573.234C2213.09,575.304 2213.53,577.253 2212.24,577.78C2210.95,578.307 2210.64,579.63 2211.74,583.644C2212.83,587.658 2216.26,588.51 2218.62,587.055C2220.98,585.599 2219.99,583.104 2225.38,584.952C2230.76,586.8 2237.14,589.392 2240.47,591.228C2243.8,593.064 2249.78,595.195 2252.58,598.204C2255.39,601.214 2255.89,603.293 2258.21,603.198C2258.27,603.195 2258.33,603.19 2258.38,603.184C2263.99,611.694 2269.82,621.066 2274.71,630.341C2274.1,630.003 2273.28,629.46 2272.15,628.626C2267.04,624.823 2261.91,619.975 2255.67,616.541C2249.42,613.107 2244.51,611.104 2244.51,611.104L2241.72,610.422C2241.72,610.422 2243.08,605.425 2240.6,603.735C2238.12,602.046 2237.41,602.683 2235.14,604.126C2232.87,605.569 2231.56,606.427 2232.55,608.251C2233.53,610.075 2234.16,610.558 2233.35,612.365C2232.55,614.172 2233.64,617.042 2236.33,616.262C2239.02,615.483 2240.56,613.429 2243.44,615.644C2246.31,617.859 2258.12,622.58 2262.01,626.077C2265.89,629.575 2270.67,634.34 2272.75,636.259C2274.82,638.178 2275.06,640.736 2278.18,640.399C2278.69,640.344 2279.13,640.257 2279.51,640.151C2279.68,640.535 2279.85,640.919 2280.01,641.301C2283.55,649.398 2288.28,660.901 2293.05,673.027C2292.85,672.869 2292.64,672.706 2292.44,672.537C2292.17,672.312 2291.75,672.292 2291.5,672.048C2289.65,670.196 2287.29,668.627 2285.23,666.978C2283.45,665.552 2281.82,663.842 2279.85,662.663C2278.26,661.71 2276.63,660.847 2275.14,659.728C2273.05,658.16 2270.33,657.732 2268.24,656.17C2267.74,655.794 2266.99,655.641 2266.56,655.095C2266.33,654.798 2266.33,654.182 2266.33,653.99C2266.33,653.458 2266.31,652.913 2266.15,652.433C2265.97,651.9 2265.47,651.325 2265.13,650.877C2264.18,649.617 2262.95,648.163 2261.17,648.608C2259.28,649.082 2257.74,650.618 2257.12,652.478C2256.94,653.037 2256.83,653.847 2256.5,654.346C2255.79,655.416 2254.73,655.985 2254.41,657.282C2254.34,657.564 2254.48,657.829 2254.54,658.082C2254.61,658.361 2254.49,658.69 2254.54,658.972C2254.76,660.069 2255.65,661.356 2256.77,661.729C2258.43,662.283 2260.06,663.534 2261.97,663.153C2262.64,663.018 2263.16,662.179 2263.7,661.907C2263.85,661.837 2264.12,661.893 2264.24,661.774C2264.34,661.671 2264.43,661.345 2264.55,661.285C2266.2,660.458 2268.29,661.546 2269.71,662.396C2270.33,662.766 2271.18,662.956 2271.8,663.331C2274.29,664.827 2276.39,666.778 2278.78,668.49C2280.71,669.864 2282.87,671.054 2284.7,672.582C2285.13,672.943 2285.69,673.442 2286.08,673.827C2286.32,674.072 2286.44,674.519 2286.7,674.717C2287.95,675.658 2289.19,676.697 2290.44,677.697C2292.67,679.48 2294.68,681.74 2297.05,683.311C2302.69,698.026 2307.92,712.513 2310.71,721.954C2310.85,722.425 2310.99,722.891 2311.12,723.352C2308.76,721.663 2305.55,719.48 2304.15,717.849C2302.43,715.838 2296.73,710.737 2291.28,706.321C2285.83,701.905 2281.53,699.968 2279.47,698.274C2277.41,696.58 2274.87,695.528 2274.25,695.156C2273.63,694.784 2273.38,693.779 2273.16,692.857C2272.9,691.708 2273.25,688.657 2272.2,687.726C2271.16,686.796 2269.01,686.575 2266.93,688.109C2264.84,689.644 2263.93,690.893 2263.15,693.086C2262.36,695.279 2264.05,696.767 2265.47,698.036C2266.88,699.304 2270.07,700.473 2272.44,700.725C2274.81,700.976 2278.26,703.634 2281.27,706.083C2284.28,708.531 2293.14,714.88 2296.55,717.774C2299.95,720.668 2304,723.912 2306.65,726.717C2309.3,729.523 2309.04,731.706 2311.46,733.153C2312.46,733.75 2313.43,734.116 2314.22,734.339C2318.09,748.772 2319.95,759.315 2322.06,776.152C2320.87,774.562 2319.55,772.779 2318.57,771.41C2316.29,768.215 2310.7,762.299 2308.05,758.994C2305.41,755.689 2300.85,751.988 2299.18,750.003C2297.5,748.018 2294.89,745.746 2294.16,744.807C2293.39,743.818 2293.8,740.994 2292.99,739.104C2292.18,737.215 2290.1,735.883 2288.16,736.235C2286.23,736.588 2286.24,738.343 2284.35,738.875C2282.47,739.406 2282.52,741.863 2282.03,743.649C2281.53,745.434 2283.03,747.031 2284.35,748.072C2285.68,749.114 2286.39,749.63 2288.7,749.254C2291,748.879 2291.81,748.412 2293.52,751.268C2295.23,754.124 2301.68,760.122 2304.17,763.033C2306.66,765.944 2311.29,770.17 2314.96,774.907C2318.64,779.644 2321.41,783.391 2322.84,786.371C2323.03,786.759 2323.21,787.109 2323.38,787.424C2324.85,802.107 2323.85,809.479 2323.14,816.154C2321.82,814.881 2319.5,812.454 2315.95,808.129C2309.87,800.702 2306.98,796.871 2304.47,794.677C2301.96,792.483 2297.76,788.561 2296.06,787.312C2294.75,786.345 2294.18,782.878 2292.08,781.887C2289.98,780.897 2289.67,782.484 2287.75,783.491C2285.83,784.498 2284.62,784.793 2284.17,786.876C2283.72,788.96 2287.59,790.223 2290.47,791.627C2293.35,793.031 2296.25,794.472 2299.42,797.979C2302.59,801.485 2311.71,810.425 2313.68,813.47C2315.4,816.115 2320.44,822.889 2322.31,826.091C2321.53,835.601 2320.57,844.282 2317.79,859.465C2312.1,890.618 2310.01,902.25 2298.87,950.195C2295.64,964.077 2292.79,975.544 2290.26,985.404C2286.31,978.466 2282.22,971.725 2278.35,966.048C2265.46,947.161 2248.27,920.988 2230.85,894.07C2227.72,889.227 2224.72,884.352 2221.86,879.528C2221.87,879.488 2221.89,879.445 2221.91,879.4C2222.83,876.802 2221.33,873.894 2220.73,869.632C2220.13,865.371 2219.55,861.716 2219.55,861.716C2219.55,861.716 2221.1,862.664 2223.21,863.536C2225.32,864.407 2226.54,861.969 2229.25,859.649C2231.97,857.329 2235.11,854.907 2234.45,851.52C2233.79,848.133 2230.59,849.003 2227.15,849.985C2223.71,850.967 2219.84,852.908 2219.84,852.908C2219.84,852.908 2220.4,848.539 2220.59,846.17C2220.77,843.801 2221.01,836.739 2221.01,836.739C2221.01,836.739 2222.72,833.836 2224.24,831.999C2225.77,830.162 2225.96,825.269 2225.46,822.568C2224.95,819.866 2222.95,815.081 2220.91,815.47C2218.86,815.859 2216.81,819.249 2217.14,822.352C2217.47,825.455 2217.74,827.932 2217.27,831.338C2216.8,834.744 2216.99,840.502 2216.99,840.502C2216.99,840.502 2215.66,837.078 2214.05,834.761C2212.45,832.445 2210.79,829.321 2208.28,828.877C2205.76,828.433 2204.54,830.595 2204.64,833.192C2204.73,835.789 2208.01,838.699 2209.21,841.715C2210.4,844.731 2217.39,847.845 2217.13,849.149C2216.86,850.452 2216.24,855.486 2216.18,858.758C2216.15,860.723 2216.34,866.204 2216.49,870.269C2206.01,851.783 2197.76,834.886 2192.17,824.486C2188.5,817.66 2184.57,809.586 2181.27,801.648C2181.41,800.755 2181.54,799.916 2181.63,799.35C2181.93,797.5 2181.64,791.746 2181.48,787.624C2181.32,783.501 2181.91,781.113 2181.91,781.113C2181.91,781.113 2183.51,780.734 2186.12,779.96C2188.74,779.186 2190.47,776.682 2193.52,774.68C2196.57,772.677 2200.86,767.748 2200.04,765.69C2199.21,763.633 2195.77,764.735 2191.49,765.816C2187.2,766.898 2183.2,772.215 2183.62,770.937C2184.03,769.659 2186.84,761.618 2188.14,758.78C2189.45,755.942 2192.14,750.086 2193.14,747.708C2194.13,745.331 2195.67,742.814 2197.73,741.149C2199.79,739.484 2202.32,738.554 2204.53,735.742C2206.75,732.93 2206.99,726.191 2206.39,722.912C2205.79,719.632 2202.22,721.516 2198.9,724.096C2195.59,726.675 2195.36,728.892 2193.89,732.894C2192.42,736.896 2191.93,740.84 2190.93,743.821C2189.93,746.803 2187.45,750.747 2187.45,750.747C2187.45,750.747 2187.98,748.112 2187.97,745.66C2187.95,743.208 2186.63,740.216 2186.34,737.677C2186.04,735.137 2184.55,730.866 2183.15,730.206C2181.74,729.547 2179.36,732.009 2178.62,734.767C2177.88,737.525 2177.9,739.281 2178.83,746.395C2179.75,753.509 2184.1,757.467 2184.1,757.467C2184.1,757.467 2180.4,768.059 2178.91,774.249C2177.99,778.079 2177.57,785.963 2177.38,791.419C2175.55,785.918 2174.94,780.649 2173.6,776.68C2169.61,764.86 2165.96,746.079 2164.6,734.634C2163.84,728.242 2163.22,719.686 2162.84,712.315C2163.36,711.476 2163.94,710.525 2164.42,709.682C2165.62,707.571 2164.81,705.194 2165.57,702.535C2166.34,699.876 2168.07,693.512 2169.19,690.796C2170.3,688.079 2171.11,685.623 2171.62,686.24C2172.13,686.856 2171.86,689.568 2173.09,690.679C2174.32,691.79 2175.43,691.54 2178.32,691.04C2181.22,690.541 2186.66,688.354 2187.25,686.918C2187.85,685.481 2187.34,684.561 2186.17,683.015C2185,681.469 2182.86,679.782 2180.33,679.957C2177.81,680.131 2174.22,679.838 2174.22,679.838C2174.22,679.838 2177.1,675.003 2178.47,674.372C2179.83,673.741 2182.56,670.376 2183.41,667.995C2184.26,665.614 2184.45,661.122 2184.26,658.861C2184.07,656.599 2182.18,653.992 2180.52,654.141C2178.87,654.29 2176.57,656.647 2175.15,660.695C2173.73,664.744 2176.11,667.342 2176.18,668.952C2176.24,670.561 2174.67,671.514 2172.37,675.12C2170.06,678.726 2169.21,681.451 2165.89,689.289C2164.39,692.843 2163.22,696.42 2162.39,699.267C2162.39,699.073 2162.39,698.889 2162.39,698.715C2162.44,692.62 2162.83,679.741 2163.32,673.427C2163.81,667.112 2163.19,663.619 2164.6,659.319C2166.01,655.018 2165.98,650.948 2164.82,648.1C2163.66,645.251 2160.85,639.964 2157.66,641.268C2154.48,642.572 2154.14,645.569 2154.95,650.252C2155.76,654.934 2156.71,659.156 2157.79,661.868C2158.78,664.331 2158.91,673.999 2158.68,678.896C2158.41,678.271 2158.13,677.635 2157.91,676.98C2156.98,674.182 2154.28,671.434 2151.49,670.736C2150.75,670.552 2149.84,670.626 2149.11,670.384C2147.28,669.773 2144,669.216 2142.7,671.176C2141.83,672.47 2143.25,674.95 2143.66,676.188C2144.86,679.771 2148.92,683.478 2152.46,684.894C2152.99,685.109 2153.48,685.352 2154.02,685.567C2154.51,685.763 2154.91,685.728 2155.45,685.861C2155.96,685.99 2157.15,685.531 2158.25,685.158C2157.87,691.401 2157.47,700.814 2157.55,710.704C2157.59,715.813 2158.26,723.621 2159.23,732.039C2157.06,729.728 2153.19,725.672 2149.38,721.992C2143.63,716.448 2136.91,712.478 2135.25,709.768C2133.58,707.058 2130.73,703.428 2128.05,700.291C2125.37,697.154 2122.66,696.054 2119.36,695.32C2116.05,694.586 2114.34,694.226 2112.81,696.46C2111.28,698.694 2114.78,700.434 2116.08,702.719C2117.37,705.003 2119.18,708.923 2123.45,711.475C2127.72,714.027 2128.77,711.493 2131.77,713.677C2134.76,715.861 2137.57,717.755 2137.57,717.755C2137.57,717.755 2134.49,718.735 2130.62,724.487C2126.76,730.24 2127.19,732.023 2128.26,734.983C2129.33,737.943 2135.41,735.574 2138.09,732.87C2140.77,730.167 2144.66,723.245 2144.66,723.245C2144.66,723.245 2149.2,728.152 2152.1,731.617C2153.91,733.78 2157.69,737.755 2160.27,740.437C2161.67,750.987 2163.38,761.422 2164.8,767.876C2166.56,775.849 2170.42,788.055 2174.1,797.403C2176.61,803.802 2179.75,809.662 2181.28,813.176C2182.28,815.485 2183.68,818.662 2185.31,822.296C2183.27,820.475 2180.78,818.324 2178.49,816.548C2173.44,812.628 2171.52,810.244 2166.92,807.54C2162.32,804.837 2158.02,803.96 2156.32,803.204C2154.63,802.447 2152.91,802.455 2150.66,799.75C2148.4,797.045 2145.74,796.623 2142.03,796.678C2138.32,796.733 2134.2,798.621 2133.82,800.95C2133.44,803.278 2136.89,803.479 2139.79,806.132C2142.68,808.784 2145.13,808.967 2149.73,808.564C2154.32,808.161 2157.1,806.806 2158.57,807.795C2160.03,808.784 2158.35,812.018 2155.97,815.284C2153.59,818.55 2154.92,823.544 2156.39,824.372C2157.85,825.199 2161.73,823.391 2163.22,821.49C2164.71,819.589 2165.38,818.171 2165.51,816.179C2165.64,814.187 2165.99,812.212 2165.99,812.212C2165.99,812.212 2174.14,819.131 2178.2,821.905C2181.93,824.449 2186.44,828.266 2189,830.393C2192.86,838.742 2197.27,847.821 2200.88,854.107C2207.47,865.591 2224.45,894.337 2228.2,900.759C2228.42,901.132 2228.7,901.599 2229.04,902.148C2224.17,898.737 2217.78,896.992 2215.47,896.302C2214.09,895.892 2214.45,889.13 2212.51,886.757C2210.57,884.384 2208.78,882.314 2205.94,882.397C2203.11,882.481 2203.61,884.113 2203.73,886.586C2203.85,889.06 2206.15,889.836 2205.92,892.582C2205.8,893.906 2204.94,894.327 2203.12,894.414C2201.3,894.501 2199.62,894.462 2199.07,891.703C2198.52,888.944 2199.41,885.048 2197.42,883.444C2195.43,881.841 2193.16,878.161 2191.22,878.532C2189.28,878.902 2188.49,880.743 2188.38,884.209C2188.28,887.675 2189.98,888.353 2191.09,890.151C2192.2,891.949 2193.07,893.08 2193.07,893.08C2193.07,893.08 2188.48,891.523 2185.73,891.426C2182.99,891.329 2179.27,894.089 2178.13,895.54C2176.99,896.991 2178.43,899.147 2179.88,901.008C2181.32,902.87 2184.71,902.789 2187.37,902.427C2190.03,902.064 2193.36,901.086 2194.72,899.612C2196.07,898.139 2196.99,898.052 2198.49,898.272C2200,898.491 2201.74,899.319 2201.74,899.319C2201.74,899.319 2200.98,901.247 2199.08,904.349C2197.18,907.45 2197.01,909.059 2197.67,911.199C2198.34,913.338 2200.51,914.137 2201.91,913.284C2203.32,912.432 2207.65,907.54 2208.48,905.859C2209.31,904.178 2211.25,901.086 2211.25,901.086C2211.25,901.086 2221.31,902.393 2227.64,906.088C2231.01,908.061 2233.95,911.06 2236.25,913.529C2244.39,926.138 2255.9,943.462 2259.54,947.851C2262.7,951.662 2268.47,960.361 2273.86,968.819C2268.68,966.752 2258.9,962.96 2252.26,961.078C2242.87,958.412 2233.4,957.184 2227.3,957.649C2221.2,958.114 2214.96,960.326 2213.26,962.077C2211.56,963.829 2211.66,966.213 2213.72,967.64C2215.78,969.067 2224.13,972.837 2239.6,974.643C2255.07,976.449 2268.99,976.503 2272.81,977.339C2275.06,977.833 2278.36,978.913 2280.69,979.715C2281.73,981.397 2282.68,982.938 2283.49,984.272C2284.76,986.366 2286.41,989.382 2288.29,992.977C2281.9,1017.44 2277.72,1031.74 2274.68,1051.76C2270.23,1081.06 2267.05,1126.07 2265.94,1143.21C2226.08,1151.26 2167.49,1161.39 2120.77,1170.38C2057.93,1182.47 1983.88,1194.19 1912.53,1186.12C1841.42,1178.09 1779.96,1135.58 1777.29,1135.34C1774.85,1134.83 1769.38,1143.28 1764.82,1150.92C1760.13,1158.8 1750.69,1172.05 1755.18,1207.24C1759.67,1242.44 1771.17,1249.66 1805.74,1256.14C1840.31,1262.63 1915.87,1257.45 1980.84,1241.95C2092.81,1215.25 2107.49,1207.48 2166.95,1193.94C2226.41,1180.39 2274.54,1165.57 2321.08,1178.47C2379.47,1194.65 2395.02,1228.99 2404.2,1247.68C2413.37,1266.37 2409.91,1299.49 2402.11,1316.22C2394.32,1332.95 2376.54,1350.8 2343.59,1349.29C2310.64,1347.78 2309.2,1327.82 2317.34,1308.52C2319.67,1302.99 2321.27,1297.41 2326.61,1290.81C2331.94,1284.2 2335.66,1279.19 2338.37,1273.29C2341.07,1267.39 2337.53,1261.52 2332.49,1255.79C2327.45,1250.06 2305.63,1241.2 2281.86,1238.37C2258.1,1235.55 2236.58,1237.97 2201.3,1243.08C2166.02,1248.2 2129.34,1260.35 2114.64,1264.38C2099.94,1268.4 2048.33,1283.51 2038.18,1286.74C2028.04,1289.97 2005.12,1298.65 1982.34,1304.26C1959.57,1309.86 1916.11,1316.07 1881.07,1318.5C1846.03,1320.92 1812.3,1317.82 1797.13,1315.97C1781.96,1314.13 1760.11,1310.2 1743.71,1300C1727.32,1289.8 1715.67,1278.81 1706.48,1260.73C1697.29,1242.66 1691.81,1219.11 1692.1,1197.34C1692.39,1175.57 1698.84,1142.33 1708.52,1123.82C1718.2,1105.31 1738.1,1085.32 1741.65,1081.58C1745.2,1077.84 1743.75,1076.21 1741.81,1069.45C1739.87,1062.69 1737.8,1058.52 1733.72,1041.35C1729.64,1024.17 1728.03,1002.42 1727.59,967.995C1727.15,933.573 1738.08,902.332 1749.01,884.244C1759.94,866.155 1779.87,838.337 1804.53,821.01C1830.77,802.577 1863.7,784.07 1916.46,770.183C1950.59,761.198 1978.5,755.539 2000.77,752.97C2037.71,748.708 2058.07,749.055 2064.26,749.31C2074.19,749.717 2078.89,751.939 2081.7,747.464C2083.13,745.168 2085.32,736.202 2082.04,731.806C2078.76,727.409 2074.19,723.61 2064.53,719.997C2054.87,716.384 2045.42,716.054 2033.6,715.72C2021.77,715.387 2008.45,713.448 1994.41,707.617C1980.37,701.786 1965.23,695.11 1951.36,683.769C1937.48,672.429 1927.98,657.907 1925.33,649.388C1922.68,640.868 1921.16,638.626 1919.06,634.056C1916.96,629.485 1917.01,626.825 1919.5,623.231C1921.99,619.637 1931.13,606.547 1936.24,596.327C1941.35,586.107 1945.84,573.375 1947.93,555.783C1950.94,530.574 1955.3,514.493 1965.62,498.904C1975.94,483.315 1989.23,458.559 2022.49,437.268C2055.18,416.348 2079.47,415.652 2083.26,412.992C2084.16,412.357 2083.32,402.787 2083.57,395.857C2083.82,388.76 2082.95,385.45 2082.7,373.084C2082.44,360.719 2075.42,353.559 2070.82,330.924C2069.54,324.657 2068.05,317.672 2071.34,316.013C2080.12,311.575 2099.22,315.22 2112.38,319.729C2130.57,325.964 2147.13,332.341 2168.41,350.258C2190.53,368.89 2203,385.413 2231.62,420.056C2257.56,451.448 2269.82,481.761 2270.99,485.292C2272.63,487.701 2275.83,488.652 2288.06,499.369C2302.46,511.985 2309.53,519.075 2335.31,567.273C2361.82,616.834 2367.93,640.788 2383.97,709.793C2400.01,778.798 2401.26,841.579 2389.17,916.746C2377.08,991.912 2370.69,1024.61 2367.85,1040.26C2365.02,1055.92 2360.11,1087.78 2359.7,1097.26C2359.29,1106.73 2359.03,1112.18 2351.9,1118.93C2349.04,1121.63 2345.04,1123.53 2339.26,1125.36ZM2271.59,1142.06C2272.03,1127.03 2274.36,1091.59 2276.9,1074.62C2279.8,1055.24 2281.71,1044.52 2287.13,1016.27C2288.31,1010.11 2289.64,1004.1 2291.03,998.314C2297.46,1011.01 2305.39,1027.82 2310.12,1038.18C2316.62,1052.42 2324.45,1080.5 2327.91,1091.92C2330.47,1100.4 2332.01,1117.76 2332.72,1127.25C2324.57,1129.42 2313.74,1131.87 2299.26,1135.75C2292.35,1137.6 2282.86,1139.73 2271.59,1142.06Z"/>
                    </g>
                    <g transform="matrix(12.7782,0,0,12.7782,-20087.3,-11760.2)">
                        <g transform="matrix(72.3637,0,0,72.3637,1958.58,1005.4)">
                        </g>
                        <text x="1783.54px" y="1005.4px" style="font-family:'SavoyeLetPlain', 'Savoye LET';font-size:72.364px;fill:rgb(119,179,108);">Cofelicem</text>
                    </g>
                </g>
            </g>
        </g>
    </g>
</svg>
